<?xml version="1.0" encoding="UTF-8"?>
<svg xmlns="http://www.w3.org/2000/svg" xmlns:xlink="http://www.w3.org/1999/xlink" version="1.1" width="24px" height="24px" viewBox="0 0 24 24">
<path d="m1.5,16.5h17l4,-10h-17z" fill="#ddd" stroke="#000"/>
<g transform="translate(7, 8) skewX(-22) scale(.4)">
  <path d="M10.76 3.62l-.5-1C9.44.98 9.46.9 8.62.78 8.37.74 8.25.71 8.25.6V.07l.07-.05h4.91l.13.04v.52c0 .12-.08.18-.26.18l-.35.06c-.9.07-.76.43-.16 1.62l5.68 11.62.2.05L23.5 2.15c.18-.48.15-.82-.07-1.02-.23-.2-.39-.32-.97-.34l-.48-.02a.27.27 0 0 1-.16-.06.17.17 0 0 1-.08-.15v-.5l.07-.05h5.7l.05.05v.5c0 .14-.07.2-.23.2-.74.04-1.3.2-1.65.49-.36.29-.64.69-.84 1.21 0 0-4.64 10.6-6.22 14.14-.61 1.15-1.2 1.05-1.73-.04-1.11-2.28-4.24-9.21-4.24-9.21z"/>
  <path d="M19.85.01h-4.63l-.07.05v.5c0 .06.03.1.08.14.05.04.1.06.17.06l.23.03c.58.02.85.17.93.27.14.17.2.35-.13 1.09l-5.98 11.93-.16-.04S6.01 5 4.77 1.97a2.04 2.04 0 0 1-.19-.69c0-.3.28-.47.83-.5l.65-.02c.17 0 .25-.07.25-.2v-.5L6.26.02H.06L.02.07V.6c0 .1.12.15.36.18.65.04 1.08.14 1.28.31.2.18.42.62.71 1.3C3.92 6.14 7.23 12.8 8.84 16.6c.46 1.04 1.04 1.2 1.75-.03 1.23-2.27 4.55-9.22 4.55-9.22l2.62-4.9c.3-.51.6-.97.75-1.19.27-.39.42-.46 1.17-.5.15 0 .23-.07.23-.2v-.5z"/>
</g>
<path d="m11.5,15.5h11v3h-11z" fill="#fa0d0d" stroke="#a41111"/>
</svg>
